<svg id="logosandtypes_com" data-name="logosandtypes com" xmlns="http://www.w3.org/2000/svg" viewBox="0 0 150 150"><defs><style>.cls-1{fill:none;}</style></defs><path class="cls-1" d="M0,.2H150v150H0Z" transform="translate(0 -0.2)"/><path d="M119,106.79a32.35,32.35,0,0,1-4.89,17.68,27.89,27.89,0,0,1-17.64,12.82,21.66,21.66,0,0,1-11-.1c-5.15-1.45-8.59-4.71-9.77-10a11.14,11.14,0,0,1,5.51-12.35,12.57,12.57,0,0,1,14.94,1.44,11.89,11.89,0,0,1,1.4,1.35,8.58,8.58,0,0,0,9.76,2.3,10.79,10.79,0,0,0,6.8-7.84,13.69,13.69,0,0,0-9.66-16.76,15.14,15.14,0,0,0-1.78-.35A25.94,25.94,0,0,0,91.55,96a46.63,46.63,0,0,0-9.79,4.29c-7.8,4.52-26,15.12-27.31,16a4.2,4.2,0,0,1-5-.17A56.22,56.22,0,0,1,33.29,99.71,56.87,56.87,0,0,1,24.51,75.5C22.61,59.92,26,45.62,35.23,32.84c7-9.72,16.46-16.35,27.68-20.48a63.7,63.7,0,0,1,9-2.56,13.36,13.36,0,0,1,7.56.54c8.79,3.24,27.76,10.12,28.41,10.41a2,2,0,0,1,1.41,2.19,2,2,0,0,1-1.83,1.74c-2.21.4-4.43.7-6.61,1.15A58.45,58.45,0,0,0,75,37.71,46.64,46.64,0,0,0,59.17,61.34a35.52,35.52,0,0,0-.48,19.13,25.81,25.81,0,0,0,7,12.36,16.4,16.4,0,0,0,6.65,4.09,10,10,0,0,0,11.4-3.53,14.91,14.91,0,0,0,2.92-6.92c.56-3.46-.12-22.83-.12-23.22a4,4,0,0,1,2.16-3.67C96.65,55,113.38,45.1,113.86,44.92a9,9,0,0,1,2.23-.59,2.4,2.4,0,0,1,2.7,2.21C118.88,47.08,119,97.21,119,106.79Z" transform="translate(0 -0.2)"/></svg>